<svg width="314" height="336" viewBox="0 0 314 336" fill="none" xmlns="http://www.w3.org/2000/svg">
<path d="M282.891 119.492L229.949 238.984H199.456V199.153H171.184V284.18L136.997 262.467L102.577 284.18V199.153H74.3114V238.984H49.7499C40.7858 238.984 28.4936 238.944 28.4936 202.59C28.4936 165.058 41.2873 165.013 49.7499 165.013H230.536L311.572 0H132.325C101.341 0 87.3843 12.4329 71.0575 36.7409C51.186 66.3237 31.3145 104.533 6.06915 164.597C1.27652 175.949 0 190.055 0 202.829C0 259.15 26.8467 267.406 53.967 267.406C60.9137 267.406 68.6184 267.349 74.3114 267.349V336L136.997 296.181L199.456 336V267.434H248.51L314 119.492H282.891Z" fill="#3D45DC"/>
</svg>
